<?xml version="1.0" encoding="UTF-8"?>
<!DOCTYPE svg PUBLIC "-//W3C//DTD SVG 1.1//EN" "http://www.w3.org/Graphics/SVG/1.1/DTD/svg11.dtd">
<svg xmlns="http://www.w3.org/2000/svg" version="1.1" width="800px" height="600px" style="shape-rendering:geometricPrecision; text-rendering:geometricPrecision; image-rendering:optimizeQuality; fill-rule:evenodd; clip-rule:evenodd" xmlns:xlink="http://www.w3.org/1999/xlink">
<g><path style="opacity:1" fill="#b2daea" d="M 399.5,183.5 C 388.764,183.293 378.097,183.96 367.5,185.5C 364.878,184.967 362.378,183.967 360,182.5C 358.426,185.577 355.926,187.243 352.5,187.5C 351.167,185.833 351.167,184.167 352.5,182.5C 356.543,181.41 360.543,180.41 364.5,179.5C 378.826,178.655 393.16,178.489 407.5,179C 407.833,180 408.167,181 408.5,182C 407.833,182.167 407.167,182.333 406.5,182.5C 401.2,181.431 395.866,181.264 390.5,182C 393.695,182.181 396.695,182.681 399.5,183.5 Z"/></g>
<g><path style="opacity:1" fill="#bfe5f2" d="M 455.5,195.5 C 455.082,196.222 454.416,196.722 453.5,197C 457.98,197.923 460.98,200.589 462.5,205C 461.906,205.464 461.239,205.631 460.5,205.5C 453.027,201.596 445.694,197.43 438.5,193C 431.061,190.974 423.728,188.641 416.5,186C 410.798,185.075 405.132,184.242 399.5,183.5C 396.695,182.681 393.695,182.181 390.5,182C 395.866,181.264 401.2,181.431 406.5,182.5C 407.167,182.333 407.833,182.167 408.5,182C 408.167,181 407.833,180 407.5,179C 393.16,178.489 378.826,178.655 364.5,179.5C 373.448,177.968 382.615,177.302 392,177.5C 400.872,177.454 409.705,177.954 418.5,179C 424.952,181.928 431.618,184.262 438.5,186C 444.52,188.673 450.187,191.84 455.5,195.5 Z"/></g>
<g><path style="opacity:1" fill="#c1e9f7" d="M 352.5,182.5 C 351.167,184.167 351.167,185.833 352.5,187.5C 349.338,189.689 345.171,191.022 340,191.5C 339.055,191.905 338.388,192.572 338,193.5C 337.667,193.167 337.333,192.833 337,192.5C 336.517,193.448 336.351,194.448 336.5,195.5C 334.234,195.859 332.401,195.192 331,193.5C 330.506,195.134 330.34,196.801 330.5,198.5C 328.801,198.34 327.134,198.506 325.5,199C 327.178,199.484 327.844,200.317 327.5,201.5C 326.71,202.401 325.71,203.068 324.5,203.5C 323.201,201.901 321.535,201.401 319.5,202C 320.167,202.333 320.833,202.667 321.5,203C 320.069,203.465 318.903,204.299 318,205.5C 317.667,204.833 317.333,204.167 317,203.5C 315.989,204.337 314.822,204.67 313.5,204.5C 324.805,194.343 337.805,187.009 352.5,182.5 Z"/></g>
<g><path style="opacity:1" fill="#a2bbca" d="M 367.5,185.5 C 360.932,187.748 353.932,189.914 346.5,192C 340.145,195.178 333.811,198.344 327.5,201.5C 327.844,200.317 327.178,199.484 325.5,199C 327.134,198.506 328.801,198.34 330.5,198.5C 330.34,196.801 330.506,195.134 331,193.5C 332.401,195.192 334.234,195.859 336.5,195.5C 336.351,194.448 336.517,193.448 337,192.5C 337.333,192.833 337.667,193.167 338,193.5C 338.388,192.572 339.055,191.905 340,191.5C 345.171,191.022 349.338,189.689 352.5,187.5C 355.926,187.243 358.426,185.577 360,182.5C 362.378,183.967 364.878,184.967 367.5,185.5 Z"/></g>
<g><path style="opacity:1" fill="#b5d2e0" d="M 324.5,203.5 C 321.264,206.797 317.597,209.63 313.5,212C 309.702,215.812 306.035,219.645 302.5,223.5C 301.548,222.548 300.548,221.548 299.5,220.5C 301.167,219.833 302.833,219.167 304.5,218.5C 303.391,216.786 304.058,216.119 306.5,216.5C 306.351,215.448 306.517,214.448 307,213.5C 307.667,212.167 308.333,212.167 309,213.5C 309.374,212.584 309.874,211.75 310.5,211C 309.244,210.583 308.577,209.75 308.5,208.5C 309.579,206.457 311.246,205.124 313.5,204.5C 314.822,204.67 315.989,204.337 317,203.5C 317.333,204.167 317.667,204.833 318,205.5C 318.903,204.299 320.069,203.465 321.5,203C 320.833,202.667 320.167,202.333 319.5,202C 321.535,201.401 323.201,201.901 324.5,203.5 Z"/></g>
<g><path style="opacity:1" fill="#bee0ef" d="M 455.5,195.5 C 465.347,200.679 473.68,207.679 480.5,216.5C 479.417,216.461 478.417,216.127 477.5,215.5C 476.808,216.025 476.308,216.692 476,217.5C 475.692,216.692 475.192,216.025 474.5,215.5C 473.913,216.233 473.913,217.233 474.5,218.5C 469.252,214.924 464.586,210.59 460.5,205.5C 461.239,205.631 461.906,205.464 462.5,205C 460.98,200.589 457.98,197.923 453.5,197C 454.416,196.722 455.082,196.222 455.5,195.5 Z"/></g>
<g><path style="opacity:1" fill="#bee0f1" d="M 444.5,228.5 C 443.183,228.821 441.849,229.154 440.5,229.5C 438.432,227.651 436.432,226.317 434.5,225.5C 434.167,226.167 433.833,226.833 433.5,227.5C 432.583,226.873 431.583,226.539 430.5,226.5C 413.476,217.978 395.476,215.145 376.5,218C 372.486,218.837 368.486,219.671 364.5,220.5C 362.713,219.183 361.046,219.516 359.5,221.5C 355.747,218.537 354.08,219.204 354.5,223.5C 352.139,223.674 349.806,224.007 347.5,224.5C 347.649,225.552 347.483,226.552 347,227.5C 346,226.167 345,226.167 344,227.5C 343.26,228.749 343.427,229.749 344.5,230.5C 335.87,236.13 328.536,243.13 322.5,251.5C 320.5,252.833 318.5,252.833 316.5,251.5C 328.646,230.061 346.98,216.895 371.5,212C 398.59,206.418 422.924,211.918 444.5,228.5 Z"/></g>
<g><path style="opacity:1" fill="#a7bdcd" d="M 364.5,220.5 C 357.79,223.633 351.123,226.967 344.5,230.5C 343.427,229.749 343.26,228.749 344,227.5C 345,226.167 346,226.167 347,227.5C 347.483,226.552 347.649,225.552 347.5,224.5C 349.806,224.007 352.139,223.674 354.5,223.5C 354.08,219.204 355.747,218.537 359.5,221.5C 361.046,219.516 362.713,219.183 364.5,220.5 Z"/></g>
<g><path style="opacity:1" fill="#bddeed" d="M 308.5,208.5 C 308.577,209.75 309.244,210.583 310.5,211C 309.874,211.75 309.374,212.584 309,213.5C 308.333,212.167 307.667,212.167 307,213.5C 306.517,214.448 306.351,215.448 306.5,216.5C 304.058,216.119 303.391,216.786 304.5,218.5C 302.833,219.167 301.167,219.833 299.5,220.5C 300.548,221.548 301.548,222.548 302.5,223.5C 296.403,230.714 291.07,238.381 286.5,246.5C 286.631,245.761 286.464,245.094 286,244.5C 284.702,245.946 284.535,247.279 285.5,248.5C 283.673,253.337 281.673,258.003 279.5,262.5C 279.565,262.062 279.399,261.728 279,261.5C 278.5,262.5 278,263.5 277.5,264.5C 277.97,265.463 278.637,265.463 279.5,264.5C 278.475,267.575 277.475,270.575 276.5,273.5C 276.539,271.776 276.206,271.443 275.5,272.5C 273.983,272.511 272.816,273.177 272,274.5C 271.601,274.272 271.435,273.938 271.5,273.5C 276.059,247.561 288.392,225.894 308.5,208.5 Z"/></g>
<g><path style="opacity:1" fill="#c2e3f2" d="M 480.5,216.5 C 484.218,220.241 487.718,224.241 491,228.5C 494.992,236.486 499.492,244.153 504.5,251.5C 501.969,253.737 499.302,253.737 496.5,251.5C 490.74,239.415 483.407,228.415 474.5,218.5C 473.913,217.233 473.913,216.233 474.5,215.5C 475.192,216.025 475.692,216.692 476,217.5C 476.308,216.692 476.808,216.025 477.5,215.5C 478.417,216.127 479.417,216.461 480.5,216.5 Z"/></g>
<g><path style="opacity:1" fill="#bfdded" d="M 444.5,228.5 C 453.187,234.854 460.521,242.521 466.5,251.5C 466,252.881 465,253.547 463.5,253.5C 461.803,253.101 460.137,252.601 458.5,252C 450.495,241.819 441.162,233.319 430.5,226.5C 431.583,226.539 432.583,226.873 433.5,227.5C 433.833,226.833 434.167,226.167 434.5,225.5C 436.432,226.317 438.432,227.651 440.5,229.5C 441.849,229.154 443.183,228.821 444.5,228.5 Z"/></g>
<g><path style="opacity:1" fill="#2d3747" d="M 286.5,246.5 C 286.167,247.167 285.833,247.833 285.5,248.5C 284.535,247.279 284.702,245.946 286,244.5C 286.464,245.094 286.631,245.761 286.5,246.5 Z"/></g>
<g><path style="opacity:1" fill="#d1fafb" d="M 345.5,261.5 C 346.028,262.721 346.695,263.887 347.5,265C 346.5,265.333 345.5,265.667 344.5,266C 328.328,266.169 312.328,266.669 296.5,267.5C 294.314,267.489 293.481,266.489 294,264.5C 295.8,262.683 297.966,261.516 300.5,261C 315.545,260.199 330.545,260.366 345.5,261.5 Z"/></g>
<g><path style="opacity:1" fill="#c4e7ed" d="M 449.5,289.5 C 448.21,287.86 446.543,287.36 444.5,288C 445.056,288.383 445.389,288.883 445.5,289.5C 444.5,289.5 443.5,289.5 442.5,289.5C 446.216,278.318 442.216,271.152 430.5,268C 413.503,267.5 396.503,267.333 379.5,267.5C 380.688,266.636 381.855,265.636 383,264.5C 399.333,265.833 415.667,265.833 432,264.5C 432.167,264.167 432.333,263.833 432.5,263.5C 416.005,262.833 399.672,262.167 383.5,261.5C 400.883,260.385 418.217,260.218 435.5,261C 442.126,263.455 446.626,267.955 449,274.5C 449.499,279.489 449.666,284.489 449.5,289.5 Z"/></g>
<g><path style="opacity:1" fill="#cefdfd" d="M 383.5,261.5 C 399.672,262.167 416.005,262.833 432.5,263.5C 432.333,263.833 432.167,264.167 432,264.5C 415.667,265.833 399.333,265.833 383,264.5C 381.855,265.636 380.688,266.636 379.5,267.5C 378.351,267.209 377.684,266.376 377.5,265C 378.383,262.094 380.383,260.927 383.5,261.5 Z"/></g>
<g><path style="opacity:1" fill="#263948" d="M 279.5,262.5 C 279.5,263.167 279.5,263.833 279.5,264.5C 278.637,265.463 277.97,265.463 277.5,264.5C 278,263.5 278.5,262.5 279,261.5C 279.399,261.728 279.565,262.062 279.5,262.5 Z"/></g>
<g><path style="opacity:1" fill="#d5fcfb" d="M 468.5,302.5 C 467.603,301.402 466.77,301.402 466,302.5C 465.667,300.167 465.333,297.833 465,295.5C 463.579,299.264 462.079,299.264 460.5,295.5C 460.333,284.828 460.5,274.161 461,263.5C 464.189,259.486 466.689,259.986 468.5,265C 465.977,277.518 465.977,290.018 468.5,302.5 Z"/></g>
<g><path style="opacity:1" fill="#bedfe6" d="M 345.5,261.5 C 354.311,262.526 360.811,267.193 365,275.5C 365.495,277.473 365.662,279.473 365.5,281.5C 363.418,281.376 361.918,280.376 361,278.5C 360.626,280.491 359.793,282.158 358.5,283.5C 358.02,279.586 356.854,275.919 355,272.5C 351.816,270.996 348.649,269.496 345.5,268C 329.17,267.5 312.837,267.333 296.5,267.5C 312.328,266.669 328.328,266.169 344.5,266C 345.5,265.667 346.5,265.333 347.5,265C 346.695,263.887 346.028,262.721 345.5,261.5 Z"/></g>
<g><path style="opacity:1" fill="#1f2d3a" d="M 276.5,273.5 C 276.5,274.167 276.5,274.833 276.5,275.5C 275.778,275.918 275.278,276.584 275,277.5C 274.616,275.803 274.782,274.137 275.5,272.5C 276.206,271.443 276.539,271.776 276.5,273.5 Z"/></g>
<g><path style="opacity:1" fill="#c1daef" d="M 275.5,272.5 C 274.782,274.137 274.616,275.803 275,277.5C 275.278,276.584 275.778,275.918 276.5,275.5C 274.916,286.768 274.249,298.101 274.5,309.5C 275.725,314.29 276.392,319.29 276.5,324.5C 275.732,323.737 275.232,322.737 275,321.5C 274.933,324.047 274.099,326.214 272.5,328C 275.62,329.424 277.287,331.924 277.5,335.5C 276.717,337.288 275.384,338.288 273.5,338.5C 271.531,331.72 270.031,324.72 269,317.5C 268.153,303.133 268.487,288.8 270,274.5C 270.383,273.944 270.883,273.611 271.5,273.5C 271.435,273.938 271.601,274.272 272,274.5C 272.816,273.177 273.983,272.511 275.5,272.5 Z"/></g>
<g><path style="opacity:1" fill="#caf0f5" d="M 365.5,281.5 C 365.667,293.838 365.5,306.171 365,318.5C 364.803,320.516 363.803,322.516 362,324.5C 361.25,325.126 360.416,325.626 359.5,326C 360.604,327.131 360.271,327.965 358.5,328.5C 357.571,329.689 357.238,331.022 357.5,332.5C 354.491,332.423 352.324,333.756 351,336.5C 350.444,334.405 349.944,334.238 349.5,336C 349.836,337.03 350.503,337.53 351.5,337.5C 350.391,338.29 349.058,338.79 347.5,339C 329.833,339.667 312.167,339.667 294.5,339C 293.944,338.617 293.611,338.117 293.5,337.5C 309.907,337.404 326.24,337.404 342.5,337.5C 343.795,336.902 345.128,336.402 346.5,336C 346.07,335.08 345.736,334.247 345.5,333.5C 339.877,334.462 334.21,334.462 328.5,333.5C 338.902,334.304 348.236,331.637 356.5,325.5C 357.667,323.833 358.833,322.167 360,320.5C 360.326,316.372 361.16,312.372 362.5,308.5C 362.714,306.058 361.714,304.392 359.5,303.5C 338.34,302.503 317.007,302.169 295.5,302.5C 294.414,302.38 293.747,301.713 293.5,300.5C 293.543,299.584 293.876,298.917 294.5,298.5C 296.199,298.34 297.866,298.506 299.5,299C 298.376,299.249 297.376,299.749 296.5,300.5C 296.667,300.833 296.833,301.167 297,301.5C 304.399,301.053 311.899,301.053 319.5,301.5C 325.167,301.333 330.833,301.167 336.5,301C 337,300.5 337.5,300 338,299.5C 339.667,299.833 341.333,300.167 343,300.5C 344.487,299.747 344.654,298.914 343.5,298C 341.19,297.503 338.857,297.337 336.5,297.5C 344.008,296.666 351.674,296.499 359.5,297C 360.116,295.6 360.449,294.1 360.5,292.5C 360.121,289.418 359.454,286.418 358.5,283.5C 359.793,282.158 360.626,280.491 361,278.5C 361.918,280.376 363.418,281.376 365.5,281.5 Z"/></g>
<g><path style="opacity:1" fill="#d5fafc" d="M 442.5,289.5 C 443.5,289.5 444.5,289.5 445.5,289.5C 445.736,290.716 445.736,291.883 445.5,293C 442.238,293.268 439.738,294.768 438,297.5C 438.257,300.725 437.924,303.725 437,306.5C 436.329,305.748 435.496,305.414 434.5,305.5C 416.039,304.858 397.705,304.192 379.5,303.5C 395.503,303.667 411.503,303.5 427.5,303C 417.496,302.5 407.496,302 397.5,301.5C 397.5,300.167 397.5,298.833 397.5,297.5C 408.226,298.262 418.893,298.095 429.5,297C 430.416,296.722 431.082,296.222 431.5,295.5C 432.496,295.414 433.329,295.748 434,296.5C 435.552,295.034 437.386,294.034 439.5,293.5C 440.521,292.099 441.521,290.765 442.5,289.5 Z"/></g>
<g><path style="opacity:1" fill="#bbdee6" d="M 431.5,295.5 C 431.082,296.222 430.416,296.722 429.5,297C 418.893,298.095 408.226,298.262 397.5,297.5C 397.5,298.833 397.5,300.167 397.5,301.5C 407.496,302 417.496,302.5 427.5,303C 411.503,303.5 395.503,303.667 379.5,303.5C 377.72,302.01 377.054,300.01 377.5,297.5C 384.328,296.864 391.162,296.197 398,295.5C 409.225,295.988 420.392,295.988 431.5,295.5 Z"/></g>
<g><path style="opacity:1" fill="#d0fcfb" d="M 336.5,297.5 C 338.857,297.337 341.19,297.503 343.5,298C 344.654,298.914 344.487,299.747 343,300.5C 341.333,300.167 339.667,299.833 338,299.5C 337.5,300 337,300.5 336.5,301C 330.833,301.167 325.167,301.333 319.5,301.5C 311.899,301.053 304.399,301.053 297,301.5C 296.833,301.167 296.667,300.833 296.5,300.5C 297.376,299.749 298.376,299.249 299.5,299C 297.866,298.506 296.199,298.34 294.5,298.5C 296.829,296.905 299.495,295.905 302.5,295.5C 313.756,297.257 325.089,297.924 336.5,297.5 Z"/></g>
<g><path style="opacity:1" fill="#9eb3c0" d="M 295.5,302.5 C 317.007,302.169 338.34,302.503 359.5,303.5C 339.66,304.386 319.827,304.719 300,304.5C 297.992,304.693 296.492,304.026 295.5,302.5 Z"/></g>
<g><path style="opacity:1" fill="#c8e9ec" d="M 449.5,289.5 C 448.617,291.91 447.45,294.243 446,296.5C 443.692,297.641 441.859,299.308 440.5,301.5C 442.483,303.984 444.65,306.317 447,308.5C 449.003,311.5 449.836,314.833 449.5,318.5C 448.541,315.861 447.374,313.194 446,310.5C 444.482,310.057 443.315,310.724 442.5,312.5C 443.246,313.736 443.579,315.07 443.5,316.5C 440.53,312.858 437.53,309.191 434.5,305.5C 435.496,305.414 436.329,305.748 437,306.5C 437.924,303.725 438.257,300.725 438,297.5C 439.738,294.768 442.238,293.268 445.5,293C 445.736,291.883 445.736,290.716 445.5,289.5C 445.389,288.883 445.056,288.383 444.5,288C 446.543,287.36 448.21,287.86 449.5,289.5 Z"/></g>
<g><path style="opacity:1" fill="#cffafa" d="M 460.5,295.5 C 462.079,299.264 463.579,299.264 465,295.5C 465.333,297.833 465.667,300.167 466,302.5C 466.77,301.402 467.603,301.402 468.5,302.5C 469.023,304.708 470.356,306.208 472.5,307C 480.493,307.5 488.493,307.666 496.5,307.5C 496.389,308.117 496.056,308.617 495.5,309C 496.756,309.417 497.423,310.25 497.5,311.5C 489.357,312.286 481.191,312.62 473,312.5C 470.163,310.525 466.996,309.192 463.5,308.5C 461.767,307.992 461.434,307.159 462.5,306C 462,305.5 461.5,305 461,304.5C 460.502,301.518 460.335,298.518 460.5,295.5 Z"/></g>
<g><path style="opacity:1" fill="#d6fafb" d="M 503.5,306.5 C 503.543,308.558 503.21,310.891 502.5,313.5C 502.369,314.239 502.536,314.906 503,315.5C 504.699,314.594 506.533,314.261 508.5,314.5C 506.614,315.065 504.947,316.065 503.5,317.5C 504.223,319.164 503.89,320.831 502.5,322.5C 503.137,326.7 503.804,330.866 504.5,335C 503.833,336.667 503.167,338.333 502.5,340C 501.251,340.74 500.251,340.573 499.5,339.5C 502.731,338.902 503.064,337.736 500.5,336C 501.232,330.22 501.899,324.387 502.5,318.5C 500.072,316.734 498.405,314.401 497.5,311.5C 497.423,310.25 496.756,309.417 495.5,309C 496.056,308.617 496.389,308.117 496.5,307.5C 497.297,300.579 497.797,293.579 498,286.5C 499.356,285.62 500.856,285.286 502.5,285.5C 502.773,292.504 503.106,299.504 503.5,306.5 Z"/></g>
<g><path style="opacity:1" fill="#31415a" d="M 274.5,309.5 C 274.663,311.857 274.497,314.19 274,316.5C 272.641,311.225 272.308,305.891 273,300.5C 273.181,303.695 273.681,306.695 274.5,309.5 Z"/></g>
<g><path style="opacity:1" fill="#d4fbfc" d="M 503.5,306.5 C 512.75,307.472 522.083,307.805 531.5,307.5C 532.536,309.391 532.536,311.224 531.5,313C 521.839,313.5 512.172,313.666 502.5,313.5C 503.21,310.891 503.543,308.558 503.5,306.5 Z"/></g>
<g><path style="opacity:1" fill="#d3f8f8" d="M 449.5,318.5 C 449.455,325.291 449.955,331.958 451,338.5C 449.534,340.325 447.701,340.825 445.5,340C 444.669,332.229 444.002,324.395 443.5,316.5C 443.579,315.07 443.246,313.736 442.5,312.5C 443.315,310.724 444.482,310.057 446,310.5C 447.374,313.194 448.541,315.861 449.5,318.5 Z"/></g>
<g><path style="opacity:1" fill="#768a97" d="M 531.5,307.5 C 532.117,307.611 532.617,307.944 533,308.5C 533.495,310.473 533.662,312.473 533.5,314.5C 525.167,314.5 516.833,314.5 508.5,314.5C 506.533,314.261 504.699,314.594 503,315.5C 502.536,314.906 502.369,314.239 502.5,313.5C 512.172,313.666 521.839,313.5 531.5,313C 532.536,311.224 532.536,309.391 531.5,307.5 Z"/></g>
<g><path style="opacity:1" fill="#c4e7ec" d="M 463.5,308.5 C 466.996,309.192 470.163,310.525 473,312.5C 481.191,312.62 489.357,312.286 497.5,311.5C 498.405,314.401 500.072,316.734 502.5,318.5C 501.899,324.387 501.232,330.22 500.5,336C 503.064,337.736 502.731,338.902 499.5,339.5C 498.883,339.389 498.383,339.056 498,338.5C 497.831,330.812 497.331,323.145 496.5,315.5C 487.548,314.694 478.548,314.194 469.5,314C 466.353,313.351 464.353,311.518 463.5,308.5 Z"/></g>
<g><path style="opacity:1" fill="#f2f9fe" d="M 277.5,330.5 C 279.104,331.287 279.771,332.62 279.5,334.5C 277.896,333.713 277.229,332.38 277.5,330.5 Z"/></g>
<g><path style="opacity:1" fill="#d1fcfc" d="M 328.5,333.5 C 334.21,334.462 339.877,334.462 345.5,333.5C 345.736,334.247 346.07,335.08 346.5,336C 345.128,336.402 343.795,336.902 342.5,337.5C 326.24,337.404 309.907,337.404 293.5,337.5C 293.511,335.983 294.177,334.816 295.5,334C 306.495,333.5 317.495,333.333 328.5,333.5 Z"/></g>
<g><path style="opacity:1" fill="#b3cfd5" d="M 365.5,281.5 C 366.661,294.994 366.827,308.66 366,322.5C 364.333,325.5 362.667,328.5 361,331.5C 358.488,334.507 355.322,336.507 351.5,337.5C 350.503,337.53 349.836,337.03 349.5,336C 349.944,334.238 350.444,334.405 351,336.5C 352.324,333.756 354.491,332.423 357.5,332.5C 357.238,331.022 357.571,329.689 358.5,328.5C 360.271,327.965 360.604,327.131 359.5,326C 360.416,325.626 361.25,325.126 362,324.5C 363.803,322.516 364.803,320.516 365,318.5C 365.5,306.171 365.667,293.838 365.5,281.5 Z"/></g>
<g><path style="opacity:1" fill="#bfd4ed" d="M 276.5,324.5 C 277.341,326.379 277.675,328.379 277.5,330.5C 277.229,332.38 277.896,333.713 279.5,334.5C 281.168,342.168 283.834,349.501 287.5,356.5C 286.518,357.141 285.518,357.807 284.5,358.5C 283.583,357.873 282.583,357.539 281.5,357.5C 278.462,351.406 275.796,345.073 273.5,338.5C 275.384,338.288 276.717,337.288 277.5,335.5C 277.287,331.924 275.62,329.424 272.5,328C 274.099,326.214 274.933,324.047 275,321.5C 275.232,322.737 275.732,323.737 276.5,324.5 Z"/></g>
<g><path style="opacity:1" fill="#c6dbf1" d="M 349.5,373.5 C 348.417,373.461 347.417,373.127 346.5,372.5C 346.167,373.167 345.833,373.833 345.5,374.5C 347.331,377.534 349.664,379.868 352.5,381.5C 336.82,374.809 324.487,364.142 315.5,349.5C 317.656,347.062 319.989,346.895 322.5,349C 329.892,359.014 338.892,367.181 349.5,373.5 Z"/></g>
<g><path style="opacity:1" fill="#bfd0e7" d="M 482.5,381.5 C 481.903,381.265 481.57,380.765 481.5,380C 483.36,377.872 484.694,375.372 485.5,372.5C 486.736,371.754 488.07,371.421 489.5,371.5C 489.67,370.178 489.337,369.011 488.5,368C 489.536,366.383 490.703,366.216 492,367.5C 494.324,364.777 493.824,363.11 490.5,362.5C 492.295,357.577 494.628,352.91 497.5,348.5C 499.901,346.938 501.901,347.271 503.5,349.5C 498.49,361.534 491.49,372.201 482.5,381.5 Z"/></g>
<g><path style="opacity:1" fill="#c5d7f0" d="M 450.5,366.5 C 451.625,364.871 452.959,363.371 454.5,362C 453.207,361.51 451.873,361.343 450.5,361.5C 450.167,364.5 448.5,366.167 445.5,366.5C 445.719,367.675 445.386,368.675 444.5,369.5C 442.471,368.371 442.137,368.871 443.5,371C 441.939,371.318 440.772,372.151 440,373.5C 439.586,373.043 439.086,372.709 438.5,372.5C 437.833,373.5 437.167,374.5 436.5,375.5C 434.581,372.994 435.581,371.66 439.5,371.5C 439.433,370.041 439.766,368.708 440.5,367.5C 443.318,364.495 446.484,361.828 450,359.5C 452.5,356 455,352.5 457.5,349C 459.955,347.369 462.455,347.203 465,348.5C 465.667,349.833 465.667,351.167 465,352.5C 460.911,358.092 456.078,362.758 450.5,366.5 Z"/></g>
<g><path style="opacity:1" fill="#bacbe3" d="M 450.5,366.5 C 448.372,369.13 446.039,371.63 443.5,374C 437.392,377.721 431.059,380.887 424.5,383.5C 421.557,383.98 418.89,384.98 416.5,386.5C 415.325,386.719 414.325,386.386 413.5,385.5C 417.632,383.934 421.632,382.1 425.5,380C 423.527,379.505 421.527,379.338 419.5,379.5C 426.623,375.77 433.623,371.77 440.5,367.5C 439.766,368.708 439.433,370.041 439.5,371.5C 435.581,371.66 434.581,372.994 436.5,375.5C 437.167,374.5 437.833,373.5 438.5,372.5C 439.086,372.709 439.586,373.043 440,373.5C 440.772,372.151 441.939,371.318 443.5,371C 442.137,368.871 442.471,368.371 444.5,369.5C 445.386,368.675 445.719,367.675 445.5,366.5C 448.5,366.167 450.167,364.5 450.5,361.5C 451.873,361.343 453.207,361.51 454.5,362C 452.959,363.371 451.625,364.871 450.5,366.5 Z"/></g>
<g><path style="opacity:1" fill="#c5d6ef" d="M 490.5,362.5 C 493.824,363.11 494.324,364.777 492,367.5C 490.703,366.216 489.536,366.383 488.5,368C 489.337,369.011 489.67,370.178 489.5,371.5C 488.07,371.421 486.736,371.754 485.5,372.5C 484.694,375.372 483.36,377.872 481.5,380C 481.57,380.765 481.903,381.265 482.5,381.5C 473.403,393.374 462.07,402.374 448.5,408.5C 446.912,407.365 446.579,406.031 447.5,404.5C 448.651,403.269 449.817,403.269 451,404.5C 453.706,401.985 456.873,400.318 460.5,399.5C 459.007,398.859 458.007,397.859 457.5,396.5C 469.871,386.463 480.871,375.13 490.5,362.5 Z"/></g>
<g><path style="opacity:1" fill="#c8dbf6" d="M 349.5,373.5 C 355.601,375.77 361.601,378.27 367.5,381C 373.111,382.269 378.778,383.102 384.5,383.5C 389.305,384.487 394.305,384.821 399.5,384.5C 399.5,385.833 399.5,387.167 399.5,388.5C 392.313,388.175 385.313,388.509 378.5,389.5C 369.12,388.663 360.453,385.996 352.5,381.5C 349.664,379.868 347.331,377.534 345.5,374.5C 345.833,373.833 346.167,373.167 346.5,372.5C 347.417,373.127 348.417,373.461 349.5,373.5 Z"/></g>
<g><path style="opacity:1" fill="#c3d7ee" d="M 419.5,379.5 C 421.527,379.338 423.527,379.505 425.5,380C 421.632,382.1 417.632,383.934 413.5,385.5C 414.325,386.386 415.325,386.719 416.5,386.5C 413.742,387.761 410.742,388.594 407.5,389C 397.839,389.5 388.172,389.666 378.5,389.5C 385.313,388.509 392.313,388.175 399.5,388.5C 399.5,387.167 399.5,385.833 399.5,384.5C 394.305,384.821 389.305,384.487 384.5,383.5C 396.432,384.26 408.099,382.926 419.5,379.5 Z"/></g>
<g><path style="opacity:1" fill="#f1fcfe" d="M 424.5,383.5 C 422.316,385.585 419.649,386.585 416.5,386.5C 418.89,384.98 421.557,383.98 424.5,383.5 Z"/></g>
<g><path style="opacity:1" fill="#c9def3" d="M 287.5,356.5 C 297.21,372.93 309.876,386.596 325.5,397.5C 325.209,398.649 324.376,399.316 323,399.5C 318.786,397.648 317.953,398.314 320.5,401.5C 303.306,390.007 290.306,375.34 281.5,357.5C 282.583,357.539 283.583,357.873 284.5,358.5C 285.518,357.807 286.518,357.141 287.5,356.5 Z"/></g>
<g><path style="opacity:1" fill="#c7d6f0" d="M 457.5,396.5 C 458.007,397.859 459.007,398.859 460.5,399.5C 456.873,400.318 453.706,401.985 451,404.5C 449.817,403.269 448.651,403.269 447.5,404.5C 446.579,406.031 446.912,407.365 448.5,408.5C 442.362,413.222 435.362,416.222 427.5,417.5C 425.866,416.793 424.532,415.627 423.5,414C 424.056,413.617 424.389,413.117 424.5,412.5C 429.255,410.22 434.255,408.386 439.5,407C 445.363,403.236 451.363,399.736 457.5,396.5 Z"/></g>
<g><path style="opacity:1" fill="#c7d9f3" d="M 325.5,397.5 C 330.902,400.86 336.236,404.193 341.5,407.5C 343.564,408.491 344.564,409.824 344.5,411.5C 346.163,410.125 347.497,410.458 348.5,412.5C 349.167,412.167 349.833,411.833 350.5,411.5C 350.833,412.167 351.167,412.833 351.5,413.5C 353.335,412.808 355.168,413.142 357,414.5C 357.688,415.332 357.521,415.998 356.5,416.5C 353.822,416.802 351.155,416.135 348.5,414.5C 347.274,414.52 346.274,414.853 345.5,415.5C 339.637,412.494 333.637,409.66 327.5,407C 324.98,405.303 322.647,403.47 320.5,401.5C 317.953,398.314 318.786,397.648 323,399.5C 324.376,399.316 325.209,398.649 325.5,397.5 Z"/></g>
<g><path style="opacity:1" fill="#c8d7f0" d="M 341.5,407.5 C 349.774,410.14 357.774,412.64 365.5,415C 369.466,415.828 373.466,416.328 377.5,416.5C 378.091,417.151 378.757,417.818 379.5,418.5C 378.359,419.425 378.359,420.259 379.5,421C 377.942,421.21 376.609,421.71 375.5,422.5C 370.804,422.329 366.137,421.829 361.5,421C 356.255,418.863 350.922,417.03 345.5,415.5C 346.274,414.853 347.274,414.52 348.5,414.5C 351.155,416.135 353.822,416.802 356.5,416.5C 357.521,415.998 357.688,415.332 357,414.5C 355.168,413.142 353.335,412.808 351.5,413.5C 351.167,412.833 350.833,412.167 350.5,411.5C 349.833,411.833 349.167,412.167 348.5,412.5C 347.497,410.458 346.163,410.125 344.5,411.5C 344.564,409.824 343.564,408.491 341.5,407.5 Z"/></g>
<g><path style="opacity:1" fill="#c1cde9" d="M 424.5,412.5 C 424.389,413.117 424.056,413.617 423.5,414C 424.532,415.627 425.866,416.793 427.5,417.5C 420.077,421.298 412.077,422.965 403.5,422.5C 399.385,421.492 398.719,419.492 401.5,416.5C 409.449,416.485 416.949,414.818 424,411.5C 424.399,411.728 424.565,412.062 424.5,412.5 Z"/></g>
<g><path style="opacity:1" fill="#cbdcf2" d="M 377.5,416.5 C 385.5,416.5 393.5,416.5 401.5,416.5C 398.719,419.492 399.385,421.492 403.5,422.5C 394.167,422.5 384.833,422.5 375.5,422.5C 376.609,421.71 377.942,421.21 379.5,421C 378.359,420.259 378.359,419.425 379.5,418.5C 378.757,417.818 378.091,417.151 377.5,416.5 Z"/></g>
</svg>
